<mxfile host="app.diagrams.net" modified="2023-05-12T08:54:56.946Z" agent="Mozilla/5.0 (Windows NT 10.0; Win64; x64; rv:109.0) Gecko/20100101 Firefox/112.0" etag="HOG7h3iNoNTY1uLlaPdW" version="21.2.9" type="github">
  <diagram id="C5RBs43oDa-KdzZeNtuy" name="Page-1">
    <mxGraphModel dx="1050" dy="566" grid="1" gridSize="10" guides="1" tooltips="1" connect="1" arrows="1" fold="1" page="1" pageScale="1" pageWidth="827" pageHeight="1169" math="0" shadow="0">
      <root>
        <mxCell id="WIyWlLk6GJQsqaUBKTNV-0" />
        <mxCell id="WIyWlLk6GJQsqaUBKTNV-1" parent="WIyWlLk6GJQsqaUBKTNV-0" />
        <mxCell id="wz5oOJGr12rPaXv0iPeF-0" value="str - строка&lt;br&gt;len - длина строки " style="text;html=1;strokeColor=none;fillColor=none;align=center;verticalAlign=middle;whiteSpace=wrap;rounded=0;" vertex="1" parent="WIyWlLk6GJQsqaUBKTNV-1">
          <mxGeometry x="115" y="50" width="170" height="40" as="geometry" />
        </mxCell>
        <mxCell id="wz5oOJGr12rPaXv0iPeF-11" value="" style="edgeStyle=orthogonalEdgeStyle;rounded=0;orthogonalLoop=1;jettySize=auto;html=1;" edge="1" parent="WIyWlLk6GJQsqaUBKTNV-1" source="wz5oOJGr12rPaXv0iPeF-2" target="wz5oOJGr12rPaXv0iPeF-10">
          <mxGeometry relative="1" as="geometry" />
        </mxCell>
        <mxCell id="wz5oOJGr12rPaXv0iPeF-2" value="Начало" style="ellipse;whiteSpace=wrap;html=1;aspect=fixed;" vertex="1" parent="WIyWlLk6GJQsqaUBKTNV-1">
          <mxGeometry x="160" y="100" width="80" height="80" as="geometry" />
        </mxCell>
        <mxCell id="wz5oOJGr12rPaXv0iPeF-46" value="" style="edgeStyle=orthogonalEdgeStyle;rounded=0;orthogonalLoop=1;jettySize=auto;html=1;" edge="1" parent="WIyWlLk6GJQsqaUBKTNV-1" source="wz5oOJGr12rPaXv0iPeF-10" target="wz5oOJGr12rPaXv0iPeF-13">
          <mxGeometry relative="1" as="geometry" />
        </mxCell>
        <mxCell id="wz5oOJGr12rPaXv0iPeF-10" value="записываем в n количество символов # в строке" style="rounded=1;whiteSpace=wrap;html=1;" vertex="1" parent="WIyWlLk6GJQsqaUBKTNV-1">
          <mxGeometry x="140" y="210" width="120" height="60" as="geometry" />
        </mxCell>
        <mxCell id="wz5oOJGr12rPaXv0iPeF-12" value="" style="edgeStyle=orthogonalEdgeStyle;rounded=0;orthogonalLoop=1;jettySize=auto;html=1;" edge="1" parent="WIyWlLk6GJQsqaUBKTNV-1" source="wz5oOJGr12rPaXv0iPeF-13" target="wz5oOJGr12rPaXv0iPeF-15">
          <mxGeometry relative="1" as="geometry" />
        </mxCell>
        <mxCell id="wz5oOJGr12rPaXv0iPeF-42" value="" style="edgeStyle=orthogonalEdgeStyle;rounded=0;orthogonalLoop=1;jettySize=auto;html=1;entryX=0;entryY=0.5;entryDx=0;entryDy=0;" edge="1" parent="WIyWlLk6GJQsqaUBKTNV-1" source="wz5oOJGr12rPaXv0iPeF-13" target="wz5oOJGr12rPaXv0iPeF-44">
          <mxGeometry relative="1" as="geometry">
            <mxPoint x="340" y="330" as="targetPoint" />
          </mxGeometry>
        </mxCell>
        <mxCell id="wz5oOJGr12rPaXv0iPeF-13" value="от i до len-n/2&lt;br&gt;с шагом 1" style="shape=hexagon;perimeter=hexagonPerimeter2;whiteSpace=wrap;html=1;fixedSize=1;rounded=1;" vertex="1" parent="WIyWlLk6GJQsqaUBKTNV-1">
          <mxGeometry x="140" y="290" width="120" height="80" as="geometry" />
        </mxCell>
        <mxCell id="wz5oOJGr12rPaXv0iPeF-27" value="" style="edgeStyle=orthogonalEdgeStyle;rounded=0;orthogonalLoop=1;jettySize=auto;html=1;" edge="1" parent="WIyWlLk6GJQsqaUBKTNV-1" source="wz5oOJGr12rPaXv0iPeF-15" target="wz5oOJGr12rPaXv0iPeF-26">
          <mxGeometry relative="1" as="geometry" />
        </mxCell>
        <mxCell id="wz5oOJGr12rPaXv0iPeF-15" value="если i-ый и i+1-ый символы строки - &#39;#&#39;" style="rhombus;whiteSpace=wrap;html=1;rounded=1;" vertex="1" parent="WIyWlLk6GJQsqaUBKTNV-1">
          <mxGeometry x="127.5" y="390" width="145" height="90" as="geometry" />
        </mxCell>
        <mxCell id="wz5oOJGr12rPaXv0iPeF-22" value="" style="endArrow=classic;html=1;rounded=0;exitX=0;exitY=0.5;exitDx=0;exitDy=0;" edge="1" parent="WIyWlLk6GJQsqaUBKTNV-1" source="wz5oOJGr12rPaXv0iPeF-15">
          <mxGeometry width="50" height="50" relative="1" as="geometry">
            <mxPoint x="10" y="410" as="sourcePoint" />
            <mxPoint x="80" y="435" as="targetPoint" />
            <Array as="points">
              <mxPoint x="100" y="435" />
            </Array>
          </mxGeometry>
        </mxCell>
        <mxCell id="wz5oOJGr12rPaXv0iPeF-23" value="ДА" style="text;html=1;strokeColor=none;fillColor=none;align=center;verticalAlign=middle;whiteSpace=wrap;rounded=0;" vertex="1" parent="WIyWlLk6GJQsqaUBKTNV-1">
          <mxGeometry x="210" y="555" width="60" height="30" as="geometry" />
        </mxCell>
        <mxCell id="wz5oOJGr12rPaXv0iPeF-24" value="НЕТ" style="text;html=1;strokeColor=none;fillColor=none;align=center;verticalAlign=middle;whiteSpace=wrap;rounded=0;" vertex="1" parent="WIyWlLk6GJQsqaUBKTNV-1">
          <mxGeometry x="90" y="490" width="60" height="30" as="geometry" />
        </mxCell>
        <mxCell id="wz5oOJGr12rPaXv0iPeF-29" value="" style="edgeStyle=orthogonalEdgeStyle;rounded=0;orthogonalLoop=1;jettySize=auto;html=1;" edge="1" parent="WIyWlLk6GJQsqaUBKTNV-1" source="wz5oOJGr12rPaXv0iPeF-26" target="wz5oOJGr12rPaXv0iPeF-28">
          <mxGeometry relative="1" as="geometry" />
        </mxCell>
        <mxCell id="wz5oOJGr12rPaXv0iPeF-26" value="ch == true" style="rhombus;whiteSpace=wrap;html=1;rounded=1;" vertex="1" parent="WIyWlLk6GJQsqaUBKTNV-1">
          <mxGeometry x="127.5" y="490" width="145" height="80" as="geometry" />
        </mxCell>
        <mxCell id="wz5oOJGr12rPaXv0iPeF-31" value="" style="edgeStyle=orthogonalEdgeStyle;rounded=0;orthogonalLoop=1;jettySize=auto;html=1;" edge="1" parent="WIyWlLk6GJQsqaUBKTNV-1" source="wz5oOJGr12rPaXv0iPeF-28" target="wz5oOJGr12rPaXv0iPeF-30">
          <mxGeometry relative="1" as="geometry" />
        </mxCell>
        <mxCell id="wz5oOJGr12rPaXv0iPeF-28" value="заменяем i-ый и i+1-ый символы строки на &#39;&amp;lt;&#39;" style="whiteSpace=wrap;html=1;rounded=1;" vertex="1" parent="WIyWlLk6GJQsqaUBKTNV-1">
          <mxGeometry x="140" y="590" width="120" height="60" as="geometry" />
        </mxCell>
        <mxCell id="wz5oOJGr12rPaXv0iPeF-33" value="" style="edgeStyle=orthogonalEdgeStyle;rounded=0;orthogonalLoop=1;jettySize=auto;html=1;" edge="1" parent="WIyWlLk6GJQsqaUBKTNV-1" source="wz5oOJGr12rPaXv0iPeF-30" target="wz5oOJGr12rPaXv0iPeF-32">
          <mxGeometry relative="1" as="geometry" />
        </mxCell>
        <mxCell id="wz5oOJGr12rPaXv0iPeF-30" value="ch == false" style="rhombus;whiteSpace=wrap;html=1;rounded=1;" vertex="1" parent="WIyWlLk6GJQsqaUBKTNV-1">
          <mxGeometry x="130" y="670" width="140" height="80" as="geometry" />
        </mxCell>
        <mxCell id="wz5oOJGr12rPaXv0iPeF-32" value="заменяем i-ый и i+1-ый символы строки на &#39;&amp;gt;&#39;" style="whiteSpace=wrap;html=1;rounded=1;" vertex="1" parent="WIyWlLk6GJQsqaUBKTNV-1">
          <mxGeometry x="140" y="780" width="120" height="60" as="geometry" />
        </mxCell>
        <mxCell id="wz5oOJGr12rPaXv0iPeF-34" value="" style="endArrow=classic;html=1;rounded=0;exitX=0;exitY=0.5;exitDx=0;exitDy=0;entryX=0;entryY=0.5;entryDx=0;entryDy=0;" edge="1" parent="WIyWlLk6GJQsqaUBKTNV-1" source="wz5oOJGr12rPaXv0iPeF-26" target="wz5oOJGr12rPaXv0iPeF-30">
          <mxGeometry width="50" height="50" relative="1" as="geometry">
            <mxPoint x="40" y="670" as="sourcePoint" />
            <mxPoint x="90" y="620" as="targetPoint" />
          </mxGeometry>
        </mxCell>
        <mxCell id="wz5oOJGr12rPaXv0iPeF-35" value="" style="endArrow=classic;html=1;rounded=0;exitX=0;exitY=0.5;exitDx=0;exitDy=0;" edge="1" parent="WIyWlLk6GJQsqaUBKTNV-1" source="wz5oOJGr12rPaXv0iPeF-30">
          <mxGeometry width="50" height="50" relative="1" as="geometry">
            <mxPoint x="20" y="840" as="sourcePoint" />
            <mxPoint x="80" y="710" as="targetPoint" />
          </mxGeometry>
        </mxCell>
        <mxCell id="wz5oOJGr12rPaXv0iPeF-36" value="" style="endArrow=classic;html=1;rounded=0;exitX=0;exitY=0.5;exitDx=0;exitDy=0;entryX=0;entryY=0.5;entryDx=0;entryDy=0;" edge="1" parent="WIyWlLk6GJQsqaUBKTNV-1" source="wz5oOJGr12rPaXv0iPeF-32" target="wz5oOJGr12rPaXv0iPeF-13">
          <mxGeometry width="50" height="50" relative="1" as="geometry">
            <mxPoint y="790" as="sourcePoint" />
            <mxPoint x="80" y="360" as="targetPoint" />
            <Array as="points">
              <mxPoint x="80" y="810" />
              <mxPoint x="80" y="330" />
            </Array>
          </mxGeometry>
        </mxCell>
        <mxCell id="wz5oOJGr12rPaXv0iPeF-37" value="НЕТ" style="text;html=1;strokeColor=none;fillColor=none;align=center;verticalAlign=middle;whiteSpace=wrap;rounded=0;" vertex="1" parent="WIyWlLk6GJQsqaUBKTNV-1">
          <mxGeometry x="90" y="400" width="60" height="30" as="geometry" />
        </mxCell>
        <mxCell id="wz5oOJGr12rPaXv0iPeF-38" value="НЕТ" style="text;html=1;strokeColor=none;fillColor=none;align=center;verticalAlign=middle;whiteSpace=wrap;rounded=0;" vertex="1" parent="WIyWlLk6GJQsqaUBKTNV-1">
          <mxGeometry x="90" y="670" width="60" height="30" as="geometry" />
        </mxCell>
        <mxCell id="wz5oOJGr12rPaXv0iPeF-39" value="ДА" style="text;html=1;strokeColor=none;fillColor=none;align=center;verticalAlign=middle;whiteSpace=wrap;rounded=0;" vertex="1" parent="WIyWlLk6GJQsqaUBKTNV-1">
          <mxGeometry x="210" y="470" width="60" height="30" as="geometry" />
        </mxCell>
        <mxCell id="wz5oOJGr12rPaXv0iPeF-40" value="ДА" style="text;html=1;strokeColor=none;fillColor=none;align=center;verticalAlign=middle;whiteSpace=wrap;rounded=0;" vertex="1" parent="WIyWlLk6GJQsqaUBKTNV-1">
          <mxGeometry x="210" y="740" width="60" height="30" as="geometry" />
        </mxCell>
        <mxCell id="wz5oOJGr12rPaXv0iPeF-43" value="" style="edgeStyle=orthogonalEdgeStyle;rounded=0;orthogonalLoop=1;jettySize=auto;html=1;" edge="1" parent="WIyWlLk6GJQsqaUBKTNV-1" source="wz5oOJGr12rPaXv0iPeF-44" target="wz5oOJGr12rPaXv0iPeF-45">
          <mxGeometry relative="1" as="geometry" />
        </mxCell>
        <mxCell id="wz5oOJGr12rPaXv0iPeF-44" value="выводим str" style="whiteSpace=wrap;html=1;rounded=1;" vertex="1" parent="WIyWlLk6GJQsqaUBKTNV-1">
          <mxGeometry x="294" y="300" width="120" height="60" as="geometry" />
        </mxCell>
        <mxCell id="wz5oOJGr12rPaXv0iPeF-45" value="Конец" style="ellipse;whiteSpace=wrap;html=1;rounded=1;" vertex="1" parent="WIyWlLk6GJQsqaUBKTNV-1">
          <mxGeometry x="314" y="390" width="80" height="80" as="geometry" />
        </mxCell>
      </root>
    </mxGraphModel>
  </diagram>
</mxfile>
